<?xml version="1.0" encoding="UTF-8"?>
<svg id="Layer_1" xmlns="http://www.w3.org/2000/svg" version="1.1" viewBox="0 0 184.2 33.9">
  <!-- Generator: Adobe Illustrator 29.3.1, SVG Export Plug-In . SVG Version: 2.1.0 Build 151)  -->
  <defs>
    <style>
      .st0 {
        fill: #effc40;
      }
    </style>
  </defs>
  <path class="st0" d="M12.4,4.7h0c0,.1.1,0,.1,0s0,0-.1,0c.1-.2.4-.3.7-.4.3,0,.5-.2.7-.5.8.2,1.4.4,1.8.9.4.4.9.8,1.3,1.2,0,0,.1,0,.2,0,0,0,.1,0,.1,0,.3.4.5.9.6,1.5,0,.6.2,1.1.4,1.5,0,.2,0,.4-.2.4,0,.1.1.3,0,.5s0,.3,0,.3c-.1.6-.2,1.3,0,1.9s.1,1.3,0,1.9c0,.5.1.9.2,1.4,0,.5.2.9.3,1.3.1.4.4.7.7.8.3.2.8.2,1.4,0,.3.1.4.2.4.4s0,.2,0,.3c-.4,0-.7.2-1,.5-.2.3-.5.5-.9.6.4,1.5.7,2.9,1,4.2.3,1.4.6,2.8,1.1,4.3-.2-.1-.3-.1-.3,0,0,.2,0,.3,0,.3,0,0-.1,0-.2,0s-.1,0-.2,0c.1.5,0,.8-.3,1.1s-.7.4-1,.3c0-.2-.2-.4-.5-.5-.3-.1-.5-.1-.7-.1-.6-1-1.1-2.1-1.5-3.6-.4-1.4-.7-2.7-1.1-3.7-.1,0-.3,0-.4,0-.2,0-.3.1-.5.2s-.3.1-.4.1-.2,0-.2,0c-.1,0-.2.1-.2.4-.1,0-.2-.1-.4,0s-.3.1-.5.2c0,.1,0,.2.1.2-.4.2-.9.3-1.6.4-.6.1-1.2.2-1.8.4,0,0,0,0,0,0s0,0,0,0c0,.1-.2.1-.3,0s-.2-.1-.3,0c-.3,0-.5.2-.5.4s-.1.4-.4.5c-.6,1.5-1.1,3-1.7,4.5-.6,1.5-1.1,2.9-1.7,4.2-.3.2-.7.3-1,.4-.4,0-.7.1-1,.3-.2-.2-.4-.3-.7-.4s-.5-.2-.6-.5c-.2,0-.4,0-.5,0-.2,0-.3-.2-.5-.3-.1-.1-.3-.3-.4-.5s-.2-.3-.3-.4c.4-1.7.9-3.4,1.6-4.9.7-1.5,1.4-3.1,2-4.8-.2-.3-.3-.5-.4-.6,0-.1-.2-.3-.3-.5.2-.2.4-.3.6-.3,0-.1,0-.2.1-.4,0-.1.1-.3.2-.4.2,0,.3-.2.5-.3s.2-.2.4-.3c.5-1.2,1-2.4,1.3-3.4.4-1,.9-2.1,1.6-3.1.2-.7.5-1.3.8-1.8s.5-1.1.7-1.8c0,0,.1,0,.2,0s.2,0,.2-.1c0-.2,0-.3.1-.4.1,0,.1-.2,0-.4.4-.3.7-.7.9-1.2s.4-1,.7-1.5c0,0,0,0,0,.3.1,0,.2-.3.2-.6,0,0,.1,0,.2-.1s.1,0,.3,0c0-.2,0-.3,0-.4s0-.2.2-.3h0ZM4.2,33.8v.2h-.2v-.2h.2ZM10.4,23.6c-.1,0-.2,0-.2.2-.1,0-.1-.2,0-.3.2-.1.4-.1.4,0,0,0-.2.1-.3,0ZM11.1,18.1c.7,0,1.3,0,1.8-.1s1.1-.2,1.6-.4c-.1-.6-.2-1.4-.4-2.3s-.3-1.8-.3-2.7c0,0,0,0-.2,0-.4,1-.9,1.9-1.4,2.8-.5.8-.9,1.8-1.2,2.8h0Z"/>
  <path class="st0" d="M29.7,14.1h0c0-.1,0,0,0,0s0,0,0,0c0,0,.1.1,0,.1s0,0,0,.2c-.1,0-.3,0-.3,0,0,.3,0,.5,0,.7s0,.4,0,.6c0-.2-.1-.2-.2,0,0,.2-.1.4-.2.5,0,0-.1.2-.2.4,0,.2,0,.2.2.1,0,.2-.1.4-.1.5s0,.2,0,.4c0,0-.1,0-.1-.2-.2.3-.3.7-.2,1.1s0,.9-.3,1.2h0c0-.2,0-.2,0-.2s0,0,0,0c-.1.4-.2.8-.2,1.1-.2.3-.4.7-.5,1.2s-.3,1-.5,1.6c-.1.6-.3,1.2-.4,1.8-.1.6-.3,1.1-.4,1.6.7-.1,1.4-.4,2-.6.6-.3,1.3-.4,2.1-.4.9-.5,1.9-.8,3-1,1.2-.2,2.3-.4,3.5-.7,0,0,.1,0,.1,0,0,0,0,0,0,.1.3-.2.7-.2,1.2-.2.4,0,.8.1,1.3.1,0,.1-.2.1-.4,0s-.3,0-.3.2c0,0,.2,0,.4,0s.4,0,.6,0c.1.3.4.5.9.5,0,.1-.1.2-.1.3s0,.1.1.3h-.4c0,0,0,.1.2,0,.2,0,.3,0,.3,0,0,.1,0,.2,0,.3s0,.1,0,.2c0,0-.1,0-.2,0s0,0-.2,0c-.1.2-.2.4-.4.5s-.3.1-.5.2c0,0,0,.1.2.1-.4,0-.7.1-1,.1-.2,0-.5,0-.8,0s-.5,0-.8.1-.6.1-1,.2c0,.2.2.3.3.2s.2,0,.3-.1c0,0,.2,0,.3-.1.1,0,.2,0,.3.2,0,0,.2-.1.3-.2.1,0,.3-.1.5,0,0,0,0,.1,0,.2,0,0,0,.1,0,.2-.7,0-1.3.2-1.9.3-.6.1-1.2.3-1.7.5-.4,0-.7,0-1,.2s-.5.3-.7.3c0,0,0-.1.3-.1-.2-.1-.5-.1-.9,0-.4.1-.7.4-.7.6,0,0,0,0,0,0s0,0-.1,0c0,0,.1,0,.1-.1s0,0-.1,0-.1,0-.1.1c0,.1,0,.1.1,0,0,.2,0,.3-.1.2s-.2,0-.2.1c-.1,0-.1,0-.1,0s0-.1,0-.3c-.3,0-.6.2-.8.4s-.5.2-.8.1c-.2.1-.3.3-.3.4s-.2.1-.5,0c0,0,0-.1,0,0s0,0,0,0c0,.2.2.3.5.3s.3-.2.3-.4c.1.1.4.2.6,0,0,.2,0,.4,0,.4-.1,0-.3,0-.4,0-.4.2-.8.4-1.2.6-.4.2-.8.4-1.2.6-.1,0-.2.2-.3.3s-.2.2-.4.3c0,0,0,.1,0,.2s0,.1,0,.2c-.7-.1-1.3-.3-1.8-.7s-1-.6-1.6-.9c-.1,0-.2,0-.2,0,0,0,0,0-.2,0-.4-.2-.6-.4-.7-.7s-.2-.5-.2-.9c.3-1.1.5-2.4.8-3.6.3-1.3.6-2.5.9-3.8.3-1.2.6-2.5,1-3.6.3-1.2.7-2.3,1-3.3,0-.4,0-.8.2-1.1.1-.3.2-.7.2-1.1.4-1.1.7-2.2.9-3.4.2-1.1.5-2.4.7-3.8.2-.5.3-1,.4-1.6.1-.6.2-1.2.4-1.8.5,0,.9,0,1.3.2s.7.2,1.1.3c0,.2,0,.3,0,.3.1,0,.2-.1.3-.2.1,0,.1,0,0,.3.1,0,.2,0,.1-.3,0-.2,0-.2.2-.2,0,0,0,.2,0,.5.3.1.5.3.6.7s.3.6.6.8c-.3.8-.5,1.5-.6,2.3-.1.8-.3,1.6-.5,2.4,0,0-.1,0-.1.1s0,.1-.2,0c0,.3,0,.6,0,1s-.2.8-.5,1c0,.4,0,.8,0,1.1-.1.3-.3.6-.4.9h0ZM27.9,30.7v.2h.3v-.2h-.2s0,0-.1,0h0ZM28.8,29.5c.1.1.2,0,.3-.1-.3,0-.4,0-.3.1ZM28.9,16.8c0-.2,0-.2,0-.2s0,.1,0,.2ZM28.9,16.2c.1,0,.1,0,0,.1s-.1,0,0-.1ZM29.6,28.6s0,0,0,0,0,0,0,0c0,0,0,0,.1,0,0,0,0,0,0,0h0ZM29.8,30.3c0,.1,0,.1-.1,0,0-.1,0-.1.1,0ZM30.1,30c.1,0,.1,0,.1,0s0,0-.1.1c0,0-.1,0-.1,0s0,0,.1-.1h0ZM30.2,29.3c.2,0,.4-.1.5-.3,0,0-.1,0,0-.2s0-.1-.2,0c.1.2.2.3,0,.3s-.2,0-.3.2h0ZM31,29s0,0,0,0,0,0,0,0c0,0,.1,0,.1,0,0,0,0,0,0,0h0ZM31.2,28.6c-.1,0-.2,0-.2.1.1,0,.2,0,.2-.1ZM31.3,28.9c0,.1,0,.1,0,0,0-.1,0-.1,0,0ZM31.7,28.6v.2h.2s0,0,.1,0v-.2h-.2s0,0-.1,0ZM32.5,28.6c.2,0,.2,0,.2-.1-.2,0-.2,0-.2.1ZM32.9,27.8c.1,0,.2,0,.2,0-.1,0-.2,0-.2,0ZM33.3,28.3c0,0,0,.1,0,.1s0,0,0-.1c0,0,.1,0,.1.1h.2c0,0,0-.1,0-.2-.1,0-.2,0-.2,0ZM34,28.1c0-.1,0-.1-.1,0,0,0,0,.1,0,.2.1,0,.2,0,.2,0,0,0-.1,0-.1-.1h0ZM34.1,28.1c.2,0,.3,0,.3-.2-.2,0-.2,0,0-.2-.2,0-.3.1-.3.3ZM34.4,28.6c0,.1-.1,0-.1,0,.2,0,.2,0,.1,0ZM35.1,27.8c0,0,0,.1,0,.1s0,0,0-.1c.2,0,.2,0,.1,0s-.1,0-.1,0ZM35.9,27.8s0,0,0,0c0,0,0,0-.1,0,0,.1,0,.2,0,.2s.2,0,.2-.1ZM39.1,26.8c-.1,0-.2,0-.2.1.1,0,.2,0,.2-.1ZM39.4,26.6c.1,0,.2,0,.2,0-.1,0-.2,0-.2,0Z"/>
  <path class="st0" d="M48.8,18.4c0,.1-.1.2-.1.4,0,.1,0,.2.3.3-.3.5-.5,1.1-.6,1.7s-.2,1.1-.2,1.6c0,0-.2-.1-.3,0s-.1.1,0,.3h0c0,0,0,0,0,0,0,0,.1,0,.1-.2.1.2.1.5,0,.8,0,.3-.2.6-.4.8.1,0,.2,0,.2,0,.1.5,0,1,0,1.5-.2.5-.2,1-.2,1.4-.1,0-.1,0,0,0,0,0,0,.1,0,.3,0,0,0,0,0,0s0,0,0,0c0,0,0,0,0,.2s0,.1,0,0,0,0,0,.2c0,0,0,0,0,0,0,0-.1,0-.1-.2-.2.3-.2.5-.2.7s.1.4.1.7h0c0,0,0,0,0-.2,0-.1,0-.2.1-.1,0,.2,0,.4,0,.6,0,.2,0,.4,0,.7-.2,0-.2,0-.2.1-.2,0-.2-.1,0-.3.1-.2,0-.4-.1-.4,0,.4,0,.8-.2,1.4-.1.6-.2,1.1-.3,1.5-.2,0-.2,0-.2,0s0-.2,0-.3c-.3.2-.5.3-.7.4-.2,0-.3.2-.4.5,0,0,0,0,0-.2,0,0-.1,0-.2,0,0,0-.1,0-.3,0,0,0,0,0,0,0s0,0,0,0h0c-.2,0-.2,0-.2.1,0,.1,0,.1-.1,0-.2-.1-.4-.2-.5-.2-.2,0-.4,0-.6-.1.2-1.7.3-3.4.3-5.1,0-1.7.3-3.3.7-4.8.2-1.4.3-2.8.5-4.1.1-1.4.2-2.8.3-4.1,0-.7,0-1.4.2-2.1.1-.7.2-1.3.3-2,.1-.7.2-1.3.3-1.9,0-.6,0-1.2,0-1.9,0-.2.2-.4.2-.5,0-.2.2-.3.2-.5,1.1.1,2.1.2,3,.4.9.2,1.8.4,2.5.9,0,0-.1.2,0,.5s0,.3-.3.3c.2.4.2,1,0,1.6-.2.7-.4,1.2-.7,1.7-.1,0-.1-.1,0-.2s.2-.2.1-.3c-.2,0-.3,0-.4.3s0,.3.3.4c-.1.1-.2.3-.2.5s-.1.4-.3.4c0,.2,0,.2,0,.1,0-.1.1-.1.1,0s0,.2-.1.2-.2,0-.2,0c0,.2,0,.3,0,.5s0,.2.2.2c-.2,0-.2.2-.1.5.1.2,0,.4-.2.6,0,.2,0,.3.1.4s.1.2.1.4c-.3,0-.5.1-.5.3s0,.3,0,.5c0,.2,0,.4,0,.5s-.1.3-.4.5c0,.4,0,.8-.1,1.2-.2.4-.2.7-.2,1h0ZM43.5,32.7c0,.2,0,.1,0,0,0-.1,0,0,0,0ZM44.5,32.5c0,.1,0,.2,0,.2v-.2h0ZM46,31s0,0,0,0,0-.1,0-.2,0,0,0,0c0,.2,0,.3,0,.3ZM46.4,31c-.1,0-.2,0-.2.1.1,0,.2,0,.2-.1ZM47.1,26.6c-.1,0-.1.1,0,.2s.1,0,0-.2c0,0,0,0,0,0s0,0,0,0ZM47,28.8c0,0,0-.1,0-.1s0,0,0,.1c0,0,0,0,0,0ZM47.4,25s0,0,0,.1c0,0,0-.1,0-.1s0,0,0,0c0-.1-.1-.3,0-.3s0-.2,0-.3c0,0,0,0,0,0s0,0,0,0c0,0,0-.1,0-.3s0-.3,0-.4c-.2,0-.2.2-.2.5s0,.5-.2.7c.1,0,.2,0,.2.1h-.2c0,0,.1.1.1.3,0,.1,0,.1.1,0,0,0,0-.1,0-.1ZM47.1,25.7c0,0,0,.1,0,0v-.2s0,0,0,0ZM47.2,26.3c0-.1,0-.1-.1,0,0,.1.1.1.1,0ZM47.3,27s0,0,0,0c0,0,0,0,0,0ZM47.2,27.4c0,.1,0,.1,0,0s0-.2,0,0ZM47.3,27.8c0,.1,0,.2,0,.3,0,.2,0,.3-.1.2,0-.2,0-.3,0-.3,0,0,0-.1,0-.2h0ZM47.5,26.9c.2,0,.2,0,0,.1s-.1,0,0-.1ZM47.6,22.6v-.2h-.2v.2h.2ZM47.5,23v-.2s0,0,0,0c0,0,0,.1,0,0h0ZM47.9,22.1c.1-.1,0-.2-.1-.4,0-.1,0-.2,0-.2,0,0,0,.1-.1.1s-.1,0,0,.2c0,0,.1,0,.1,0,0,0,0,0,0,0,0,.2,0,.4.1.4h0ZM47.9,21.2h-.2c0-.2,0-.3,0-.2,0,0,0,.1,0,.2,0,0-.1.1-.1.2.2,0,.2,0,.2,0s0-.1,0-.1c0,0,0,0,0,0s0,0,.1,0c0-.1,0-.3,0-.3,0,0,0-.1,0-.2-.2,0-.2.1-.2.4h0ZM47.9,20.7c.1,0,.2,0,.2-.1-.1,0-.2,0-.2.1ZM48.1,20.5c0,0,0-.1,0-.2,0,0,0,0-.2,0,0,.2,0,.3.1.3ZM48.3,18.8c0-.1,0-.1,0,0,0,0,0,0,0,0ZM48.9,18.3s0,0,0,.1c0,0,0-.1,0-.1ZM49,16.9c0-.2,0-.2,0,0,0,.2.1.2,0,0Z"/>
  <path class="st0" d="M81.9,25.7c-.1.2-.2.4-.2.5,0,.2-.2.3-.3.5,0,0,0-.1,0-.1,0,0,0,0,0-.1-.1,0-.2,0-.2.1,0,.1,0,.2,0,.2.1,0,.2,0,.1.2-.3.1-.6.4-.8.7-.2.3-.5.5-.8.8s-.5.5-.8.6c-.3.1-.6.2-1,.1,0,0-.1,0,0,.1,0,0,0,.1,0,.2-.1-.1-.2-.1-.3,0,0,0,0-.1,0,0s0,0,0,0c0,0,0,.1.1.1,0,0,.2,0,.2.1-.3.2-.6.4-.9.6s-.7.4-1,.6c-.3.2-.7.4-1,.5-.3.1-.6.2-.9.1-.3.4-.8.7-1.3.9-.6.2-1.2.4-1.8.5,0,0-.2.2-.4.3-.2.2-.3.1-.5,0-.2.3-.6.4-1.1.3-.5,0-1,0-1.5,0,0,0,.2-.1.3-.3.1-.2.2-.2.4-.1,0-.2,0-.3,0-.3h-.4c0,0,0,.1,0,.2s0,0,0,.2c-.6.2-1.1.1-1.5,0s-.8-.3-1.5-.4h0c0-.1,0-.2,0-.2,0,0,.1,0,.1,0,0,0,0,0,.2,0,0,0,0-.1-.2-.2s-.2,0-.2,0c-.2,0-.4,0-.6-.2-.2-.1-.3-.3-.5-.4-.2-.1-.3-.3-.5-.4-.2-.1-.4-.2-.7-.2,0-.3-.1-.5-.3-.7-.2-.1-.4-.2-.5-.3,0-.2,0-.2.2,0,.1.1.2.2.3,0-.2-.1-.3-.2-.4-.4,0-.1-.2-.2-.3-.3,0-.1,0-.1.1,0,0,.1.1.1.2,0-.2-.1-.3-.2-.3-.4s0-.3,0-.6c.1,0,.2.1.2.4,0-.3,0-.5.2-.7s.3-.4.4-.7c.2.1.3,0,.3-.1s0-.4.1-.5c.1,0,.1,0,0,.1,0,.1,0,.1,0,.1.1,0,.2-.2.2-.4s0-.4,0-.5c0-.2,0-.3.1-.4,0-.1.2-.2.4-.2,0,0,0-.1,0-.2s0-.1,0-.2c0,.2.2.2.3,0,0-.1.2-.2.3-.3,0,0,.1,0,.1,0s0,0-.1,0c.2-.2.3-.4.4-.6,0-.2.2-.3.4-.4,0,.2-.2.3-.3.4-.1,0-.2.2-.2.5-.2,0-.2,0-.1,0,0,0,.1,0,.1,0,0,0,.2-.2.3-.3s.2-.2.3-.3c0,.3,0,.5-.3.6s-.3.3-.2.5h0c0,0,0,0,0,0,.2.1.2.1.2,0s0-.2.2-.2c0,.1,0,.3,0,.4,0,.1,0,.3,0,.5h0v-.2c0,0-.1,0-.1,0s0,0,.1,0c0,0,0,0,0,0h-.1c0,.2,0,.2.2.3,0,0,0,.1,0,.1s0,0,0,0c0,0,.2-.2.3-.4,0-.1.1-.3,0-.3,0-.2,0-.2,0,0,0,.1,0,.1,0,0,0,0,0,0,0,.2,0,0,0,0,0,.2,0,0,0,0,0,0h0c.1-.2.2-.2.2-.3,0-.2.1-.3.1-.3,0,0,0-.1,0-.4.2,0,.3,0,.4,0,0,0,.1-.1.2-.2s.1-.1.2-.2c0,0,.1-.1.3-.1-.2-.2-.2-.3,0-.4h.2c0,.2,0,.2,0,.1,0-.1,0-.1,0-.1,0-.1,0-.3.1-.3,0,0,.1-.1.1-.2,0,0,0,.1,0,.2s0,.1.3,0v.2c-.3.1-.6.3-.7.7,0,0-.1.1-.2.2s0,.1,0,.2c0,0-.2.1-.2.3.2,0,.2,0,.2-.3,0,0,0,0,0-.1s0-.1,0-.2c.3-.2.6-.4.7-.7.1,0,.2-.2.2-.4.2,0,.2.1.2,0s0,0,.3,0c-.1,0-.2.1-.2.3,0,.1-.2.2-.3.2v.4h-.1s0,0,0,0,0,0,0,0c0,0,0,0,0,.1,0,0,0,0,0,.1,0,0,0,.1,0,0,0,0,0,0,.1,0,0,.1,0,.2,0,.2,0,0,0,.1,0,.2,0,0,0,.1,0,.3,0,0,.1-.1.2-.2s0-.1.2-.1c0,0,0-.1-.3-.1,0,0,0,0,0-.1h0c.1,0,.2-.1.3-.2,0-.1.1-.2.2-.4,0-.1.1-.2.2-.3,0,0,.2-.1.3,0-.2.1-.2.3-.2.5,0,.1,0,.3,0,.4.1,0,.2,0,.2-.2s.1-.1.3,0c-.3.1-.3.4-.1.6-.3.1-.5.4-.6.6s-.3.5-.5.7c.2.2.2.4.2.8-.3,0-.4,0-.5.4,0,.3-.2.6-.4.8.7,0,1.3-.1,2-.6.6-.4,1.2-.7,1.8-.8,1.2-.6,2.4-1.3,3.5-2,1.1-.7,2.1-1.5,3.1-2.4,0-.1.1-.3.2-.5.1-.2.2-.4.3-.5s.2-.4.3-.6c0-.2,0-.5,0-.7-.7-.4-1.4-.8-2.1-1.1-.7-.3-1.4-.6-2-1-1.1-.2-2.1-.5-3-.8-.9-.4-1.7-.8-2.6-1.4-.5-.1-.8-.3-1.1-.7-.2-.3-.6-.6-1-.8-.1-.3-.3-.6-.5-.9s-.4-.5-.6-.8c0-.3,0-.5,0-.7s0-.4,0-.5c-.2,0-.3-.2-.2-.3,0-.1,0-.2,0-.3,0,0,0-.1,0,0,0,0,0,0,0,0,0,0,0,0,0,0s0,0,0-.2h0c0,0,0,.2,0,.2.2-.2.2-.4,0-.6s-.2-.3-.3-.4c0,.1,0,.2,0,.3,0,.1,0,.2,0,.4-.2,0-.3-.2-.3-.4s0-.4,0-.5c.3-.2.6-.4.7-.8.2-.3.4-.6.6-.9.2-.3.4-.5.7-.6s.6-.3.9-.5c.9-.5,1.7-1,2.5-1.5.8-.5,1.7-.8,2.7-1.1,1.3-.4,2.5-.8,3.7-1s2.4-.2,3.5.1c0,.2.1.3.3.4s.3.1.5.1c.2,0,.3,0,.5.2.2,0,.3.2.3.4,0,0,0,0,0,0,0,0,.1,0,.3,0,0,.1.2.3.2.4,0,.2.2.3.5.3-.1.3,0,.5.2.6-.2.2-.2.3-.2.5s0,.3,0,.6c-.4.2-.8.3-1,0-.2-.2-.5-.3-.8-.3-.7-.2-1.3-.2-1.9-.2s-1.2.3-1.8.6c0,.1.1.2.2.1s.1,0,.3,0c-.7.3-1.5.5-2.3.8-.8.3-1.6.6-2.4.9s-1.6.7-2.3,1.1-1.3.9-1.8,1.6c1.3.5,2.7,1,4.3,1.6,1.6.6,3,1.2,4.4,2.1s2.5,1.9,3.4,3,1.4,2.7,1.3,4.4c0,.2-.1.4,0,.5s0,.2-.1.3c0,.1,0,.2,0,.2s.2,0,.1.2c-.2,0-.3.2-.3.3,0,.1-.1.2-.3.4h.2,0ZM62.2,26.9c0-.2,0-.3,0-.2,0,0,0,.1,0,.2ZM62.2,31.4s0,0,0,0c0,0,0,0,0,0ZM62.6,25.8c0,0,0,.2,0,.4,0,.1,0,.2-.1.2,0-.1.1-.2.1-.3s0-.2,0-.2h0ZM62.6,25.8c0-.2,0-.3.1-.3s0,0,0,.2c0,.1,0,.1-.2.1h0ZM62.6,27.2c0,0,0-.1,0,0s0,0,0,0ZM62.8,26.8c.2-.1.2-.1,0,0s-.1.1,0,0ZM62.9,26c.2,0,.2,0,.1.1,0,.2-.1.3-.1.4-.1,0-.1-.1,0-.2s.1-.2,0-.3h0ZM63.5,25.5c0,0,0,.1-.1.2,0,0,0,.1-.1.2,0,0,0-.1,0-.2,0-.1.1-.1.3-.1h0ZM63.6,25c0,0,0,0,0,.2s-.1.2-.2.2c0-.1,0-.2.1-.2s.1,0,0-.2ZM63.9,26.4h-.2v.2c.1,0,.2,0,.2-.2,0,0,.1-.1.2-.1,0,0,0,0,0-.1-.1.1-.2.2-.2.3ZM63.7,26.9c.2,0,.2,0,.2-.2-.2,0-.2,0-.2.2ZM64.5,11.6c0,0,0-.1,0,0s0,0,0,0ZM64.6,26.9c0,0,0-.1,0,0,0,0,0,0,0,0ZM64.7,32.7c0,0,0,0,0,0s0,0,0,0ZM64.8,24.3h0c0,.1,0,.2,0,.2,0-.1,0-.2,0-.2ZM65.3,24.9c-.3.4-.4.6-.5.8,0-.3,0-.6.5-.8ZM65.3,9.5c.1.1,0,.2,0,.3-.2.1-.3.2-.3.4-.2-.1-.2-.3,0-.4s.3-.2.3-.3ZM64.8,24.3c0,0,0-.1,0-.1s0,0,0,.1ZM65,25.5c0,0,0,0,0,.2s-.1.2-.2.1c.1-.1.2-.3.2-.4h0ZM64.9,24.6c0-.2,0-.2,0,0s0,.2,0,0ZM65.3,25.2c0,0,0,.1,0,.2s0,.1,0,.2h-.3c0-.1,0-.2,0-.2,0,0,.1,0,.1-.1ZM65.2,11.8c0,0,0,.1,0,0v-.2s0,0,0,0h0ZM65.3,26.4c-.1,0-.1-.1,0-.2s.1,0,0,.2ZM65.5,24.2c0,0-.1,0-.1,0s0,0,.1,0ZM65.5,26.5h0c-.1.2-.2.2-.1.2s0,0,.1,0c0,0,0,0,.1-.1,0,0,0,0-.1,0ZM65.5,24.2c.1,0,.1,0,0,.1,0,.1-.1,0,0-.1ZM65.5,25.3c0,0,0-.1,0,0s0,0,0,0ZM65.6,9.1c0,0,0-.1,0,0,0,0,0,0,0,0ZM65.7,24.8c0-.2,0-.3,0-.2s0,.1,0,.2ZM66,8.9c0,0-.1,0-.1,0s0,0,.1,0ZM66.4,24c0,0,0-.1,0,0v.2s0,0,0,0h0ZM66.7,8.8c0-.2,0-.3,0-.3h-.2c0,.1,0,.2.1.3ZM66.7,25.5c0,0,0,0,0,0,0,0,0,0,0,0,0,0,.1,0,.2,0s0,0,0-.1c0,0,0,.1,0,0s0,0-.1,0v.2h0ZM67.1,26.8c0,0,0,0,0,0,0,0,0,0,0,0ZM67.2,24.3c0-.1,0-.1.1,0h0c0,0-.1,0-.1,0ZM67.2,26.1c0,0,0,.1,0,0v-.2s0,0,0,0ZM67.4,24.3c0-.2,0-.3,0-.2s0,.1,0,.2ZM67.5,25.5s0,0,0,0c0,0,0,0,0,0ZM67.8,23.6c0,0,0,.1,0,0s0,0,0,0ZM67.8,23.6c0-.2,0-.3.2-.3s.2-.1.2-.2c.2,0,.2.1,0,.3-.1.1-.3.2-.4.3ZM68.1,25.1c-.1,0-.2,0-.2,0,0,0,0,0,.1,0,0,0,0,0,0,0h0ZM67.9,25.8c0,0,.1,0,.1-.1s0-.2,0-.2h0c0,0,0,.1,0,.1v.2h0ZM67.9,24.1c0,0,0-.1,0-.1s0,0,0,.1ZM68.1,24.1c0,0,0-.1.2-.1,0,0,0,.1,0,0s0,0-.1,0h0ZM68.2,23.8c0,0,0,0,0,0s0,0,0,0ZM68.3,33.2c.2,0,.2-.2,0-.2s-.1,0,0,.2ZM68.6,24.7c0,0,0,0,0,.2,0,.1-.1.1-.2.1,0,0,0-.1,0-.1,0,0,0,0,0-.1h0ZM68.6,24.3c0,0,0-.1,0,0,0,0,0,0,0,0ZM69.1,22.6c0,0,0,.1-.1.2s-.2.1-.2.2c-.2,0-.2-.1,0-.2s.3-.1.3-.1h0ZM68.6,23.4c0,0,0-.1,0,0s0,0,0,0ZM68.7,25.1c0,0,0,0,0,0s0,0,0,0ZM69.1,23.1s0,0,0,0c0,0,0,0,0,.1-.2,0-.2-.1,0-.2s.2-.1.3,0h0ZM69.1,23.8c0,0,0,0,0,0,0,0,0,0,0,0ZM69.4,33.5c0,0,.2,0,.2-.1,0,0,0-.2,0-.2,0,0,0,0-.1,0s-.2,0-.2,0c0,0,0,.1,0,.2,0,0,0,0,0,.2h0ZM69.4,23.5c0-.2.1-.2,0,0,0,.2,0,.2,0,0ZM69.5,6.7c0,.1.1,0,.1,0s0-.1-.1,0ZM69.5,7.1c0,0,0,0,0,0,0,0,0,0,0,0ZM69.8,33.1c0,.1,0,.1,0,0,0-.1,0-.1,0,0ZM69.8,6.6h.2c-.1,0-.2,0-.2,0ZM69.9,7.4c0,.2,0,.2,0,0s0-.2,0,0ZM70.3,6.4c0,0,0,0,0,0s0,0,0,0ZM72.6,5.5h.2c0-.1-.2-.1-.2-.1h0ZM72.6,6.1h.2v-.2h-.2v.2ZM72.9,5.4c0,0,0,.1,0,0v-.2s0,0,0,0h0ZM73.2,5.7c-.1,0-.2,0-.2,0,0,0,0,0,.1,0,0,0,0,0,0,0ZM73.4,5.9c.1,0,.2,0,.3-.2,0,0-.2-.1-.3,0s-.1.1,0,.3ZM73.8,31.6s0,0,0,0c0,0,0,0,0,0,0,0,0,0,0,0s0,0,0,0ZM74,5.6h.2v-.2h-.2v.2ZM74.1,5.2s0,0,0,0c0,0,0,0,0,0ZM74.3,5.4c-.1,0-.1.1,0,.1s.1,0,0-.1ZM74.5,5.5c0,0,.2,0,.3,0s0,0,0-.1c0,0,0,0-.1,0,0,0-.1,0,0,.2ZM74.6,31.2c0,0,0,0,0,0,0,0,0,0,0,0ZM75,31c-.1,0-.2,0-.2.1,0,0,.1-.1.1,0s0,0,0,0h0ZM74.9,5.4c.1,0,.2,0,.2,0s0,0,.2,0c0-.2,0-.3,0-.3,0,0,0,.1-.2.1s-.2,0-.2.2h0ZM75.5,5.1h.2c-.1,0-.2,0-.2,0ZM75.5,5.3c.2,0,.3,0,.3-.2h-.2s0,0,0,0,0,0,0,.1h0ZM75.8,5.2c0,0,0,0,0,0,0,0,0,0,0,0ZM75.8,30.5c0,.2.1.2.1,0s0-.2-.1,0ZM76,30.5c.2,0,.3-.1.4-.1,0,0,.1-.1.1-.3-.2,0-.4.1-.5.5h0ZM76.3,5.2c0,.1,0,0,0,0,0-.2,0-.1,0,0ZM76.5,5.2c0,0,0,0,0,0s0,0,0,0ZM76.7,30c-.1,0-.1,0,0,.1s.1,0,0-.1c.2,0,.2,0,.1,0s-.1,0-.1,0ZM77.2,29.7c0,.2,0,.2,0,0s0-.2,0,0ZM77.2,5c.2,0,.3,0,.4,0s.2,0,.3,0c0-.2,0-.3-.3-.2s-.3.2-.4.2ZM77.3,4.4c.2,0,.2,0,.2-.2-.2,0-.2,0-.2.2ZM79.1,28.8c0,.1,0,.1,0,0s0-.1,0,0ZM81.9,25.7c0,0,0-.1,0-.1s0,0,0,.1Z"/>
  <path class="st0" d="M100.1,12.1c0,.1.1.2.1,0s0-.2,0-.3c0,0-.1,0-.1.2-.1-.1-.2-.1-.2,0,0,.1,0,.1-.2.1,0-.2,0-.4.1-.4,0,0,0-.3,0-.7,0,0,.1,0,.1,0s0,0,.1,0c0-.1,0-.3,0-.4,0-.1-.1-.2-.2-.3s0-.2-.1-.3,0-.2,0-.4c0,0,.1.2.2.3,0,.1,0,.3.2.3.2-.1.2-.4.2-.7s-.2-.5-.2-.6c.2-.1.3,0,.4.2,0,.3.2.4.3.5,0,0,0,0,.1,0,0,0,0,0,.1,0,0-.2,0-.3-.2-.4-.1,0-.2-.1-.2-.3,0,0,0-.1,0-.1s.1,0,.1,0c0-.1,0-.2-.2-.2s-.1,0,0-.3c.2,0,.3,0,.5.4s.2.5.3.8c0-.2,0-.4.2-.6.1-.2.2-.3.2-.3.1,0,.2,0,.2.1,0,.1,0,.3,0,.5s0,.3,0,.5c0,.1.1.2.2.3v.4c.2.2.3.4.3.6s0,.3.3.4c0,.1,0,.2,0,.2s-.1,0-.1.1c.1.1.3.2.5.2,0,.3-.1.7,0,1,0,.4,0,.7,0,1,0,.3,0,.6,0,.9,0,.3-.2.6-.4.9,0,0,0,.1.3.1,0,1.2-.3,2.2-.6,3.2-.3,1-.6,2-.7,3-.2.5-.4,1-.7,1.4s-.5.9-.7,1.5c-.5.8-1,1.5-1.5,2.3-.5.8-1.1,1.5-1.8,2,0,.1-.1.3-.1.3s0,.2-.1.3c0,0,0,0-.1,0,0,0-.1,0-.2,0,0,.3-.3.6-.6.7s-.6.3-.9.4c-.3.1-.6.2-.9.3s-.5.3-.6.5c-.2,0-.2,0-.2-.1-.3.2-.6.3-1,.5-.4.1-.8.2-1.2.2s-.8,0-1.3,0-.8-.1-1.2-.3c-.3,0-.5,0-.7,0-.2,0-.3,0-.5,0,0,0,0-.1-.1-.1s0,0,0-.1c0,0-.1,0-.2,0s-.1,0-.2,0c-.9-.4-1.6-1-2.1-1.8s-.9-1.7-1.3-2.7c-.5-1.3-.9-2.6-1-4s-.1-2.8,0-4.2c.1-1.4.4-2.7.7-4.1.3-1.3.7-2.6,1.1-3.7,0-.6.2-1.1.4-1.5s.3-.9.3-1.6c.2-.3.4-.5.5-.8s.4-.3.9-.2c0,0,.1.2.1.2s0,.2,0,.2c.2-.2.5-.3.9-.2.2.3.4.6.8.7.4.1.6.4.7.7,0,.4,0,.6,0,.7,0,.1.1.3.3.4-.2,1.1-.4,2.2-.6,3.4s-.5,2.3-.8,3.3c0,.8-.1,1.6-.2,2.5s0,1.7,0,2.5c.2,1,.4,2,.5,2.9.2.9.6,1.8,1.2,2.5,0,0,0,.1,0,.1,0,0,0,0,0,.1l.6.5c.2.2.3.3.5.5.8-.3,1.5-.7,2-1.2.5-.5,1.1-1,1.7-1.5.7-1.2,1.4-2.5,2.2-3.7.7-1.2,1.3-2.5,1.9-4-.1-.4,0-.7.1-1s.4-.6.5-.9c0,0,0-.1-.1-.1s-.1,0,0-.1c.2,0,.3-.1.3-.3s0-.4.3-.5c0,0-.1-.1-.2-.2,0,0-.1-.1,0-.3,0,.2.2.2.3.2,0,0,.1,0,.1.2.3-.3.6-.6.6-1-.2,0-.3,0-.4.2,0,.2,0,.3,0,.4,0,0,0,.1-.2,0-.2,0-.2,0-.3,0,0,0,0-.2,0-.3,0-.1.1-.1.3,0,0-.2,0-.3-.2-.3s-.2-.1,0-.3c.2,0,.2,0,.2.1s0,.2,0,.2c.1,0,.2,0,.2-.1v-.4c0-.1-.1-.1-.2,0,0,.1-.1.2-.3,0,.2-.2.3-.4.3-.6s.1-.4.4-.6c0,.2,0,.3,0,.4s-.1.2,0,.4c.2-.3.3-.5.2-.8,0-.3,0-.5,0-.7h0ZM87.8,23.5s0,0-.1,0c0,0,.1.1.1,0ZM97.4,22.1c0,0,0,0,0,0,0,0,0,.1,0,.2s.1,0,.1,0c0,0-.1,0-.1,0h0ZM99.3,15.9c0,.1.1,0,0-.1-.2,0-.2,0,0,.1ZM99.4,16.5c0,.2,0,.2,0,0s0-.2,0,0ZM99.4,17.3c.2,0,.2,0,.2-.2-.2,0-.2,0-.2.2ZM99.4,17.6h.2v-.2h-.2v.2ZM99.7,11c0,.1-.1.2-.1.3,0,0-.1,0,0-.2,0-.1,0-.2,0-.3.2,0,.2.2.1.3ZM99.6,16c0,0,.2-.2.3-.5s0-.3-.1-.3c0,0-.1.2-.1.4s0,.3,0,.4h0ZM99.7,16.2c0,0,0-.1,0-.1s0,0,0,.1c0,0,0,0,.1,0,0,0,0,0,0,0h0ZM99.6,12.9c0,0,0-.1,0,0v.2s0,0,0,0ZM99.8,12.5c0,0,0,.1,0,.2-.1,0-.2-.1-.1-.2s0-.1,0-.2c.1,0,.2.1.1.2ZM100.4,11c0,.1,0,.1,0,0s0-.1,0,0ZM100.6,23.2c0,0,.1,0,.1.1,0,0,0,.1.2,0,0,0,0-.2.1-.3,0-.1,0-.2-.2-.2,0,.2,0,.3,0,.2s-.2,0-.2,0h0ZM101.1,23.5c0,0-.1,0-.2,0,0,0,0,0-.1,0,0,0,0,.1.1,0,.1,0,.2,0,.1-.2h0ZM101.7,8.8v.2h-.2v-.2h.2ZM101.6,9.8c0,.2,0,.2,0,0s0-.2,0,0ZM102.6,17.2v.2c0,0,.1,0,.1,0s0-.2,0-.2c0,0,0,.1,0,.1h0ZM102.9,13c0,.3,0,.5.2.5,0-.2,0-.4-.2-.5ZM103.2,14.8c-.2,0-.3,0-.3.2.2,0,.3,0,.3-.2Z"/>
  <path class="st0" d="M110.3,14.1h0c0-.1,0,0,0,0s0,0,0,0c0,0,0,.1,0,.1s0,0,0,.2c-.2,0-.3,0-.3,0,0,.3,0,.5,0,.7s0,.4,0,.6c0-.2-.1-.2-.2,0s-.1.4-.2.5c0,0-.1.2-.2.4s0,.2.2.1c0,.2-.1.4-.1.5s0,.2,0,.4c0,0-.1,0-.1-.2-.2.3-.3.7-.2,1.1,0,.5,0,.9-.3,1.2h0c0-.2,0-.2,0-.2s0,0,0,0c-.2.4-.2.8-.2,1.1-.2.3-.4.7-.5,1.2s-.3,1-.5,1.6c-.2.6-.3,1.2-.4,1.8-.1.6-.3,1.1-.4,1.6.7-.1,1.3-.4,2-.6.6-.3,1.3-.4,2.1-.4.9-.5,1.9-.8,3-1s2.3-.4,3.5-.7c0,0,.1,0,.1,0,0,0,0,0,0,.1.3-.2.7-.2,1.2-.2s.8.1,1.3.1c0,.1-.2.1-.4,0s-.3,0-.3.2c0,0,.2,0,.4,0s.4,0,.6,0c.1.3.4.5.9.5,0,.1-.1.2-.1.3s0,.1.1.3h-.4c0,0,0,.1.2,0s.3,0,.3,0c0,.1,0,.2,0,.3s0,.1,0,.2c0,0-.1,0-.2,0s0,0-.2,0c-.1.2-.2.4-.4.5s-.3.1-.5.2c0,0,0,.1.2.1-.4,0-.7.1-.9.1-.2,0-.5,0-.8,0s-.5,0-.8.1-.6.1-1,.2c0,.2.2.3.3.2s.2,0,.3-.1c0,0,.2,0,.3-.1.1,0,.2,0,.3.2,0,0,.2-.1.3-.2.1,0,.3-.1.5,0,0,0,0,.1,0,.2,0,0,0,.1,0,.2-.7,0-1.3.2-1.9.3s-1.2.3-1.7.5c-.4,0-.7,0-.9.2s-.4.3-.7.3c0,0,0-.1.3-.1-.2-.1-.5-.1-.9,0-.4.1-.7.4-.7.6,0,0,0,0,0,0s0,0-.1,0c0,0,.1,0,.1-.1s0,0-.1,0-.1,0-.1.1c0,.1,0,.1.1,0,0,.2,0,.3-.1.2s-.2,0-.2.1c-.1,0-.2,0-.1,0s0-.1,0-.3c-.3,0-.6.2-.8.4s-.5.2-.8.1c-.2.1-.3.3-.3.4s-.2.1-.5,0c0,0,0-.1,0,0s0,0,0,0c0,.2.2.3.5.3.2,0,.3-.2.3-.4.2.1.3.2.6,0,0,.2,0,.4,0,.4-.1,0-.3,0-.4,0-.4.2-.8.4-1.2.6-.4.2-.8.4-1.2.6-.1,0-.2.2-.3.3s-.2.2-.4.3c0,0,0,.1,0,.2s0,.1,0,.2c-.7-.1-1.3-.3-1.8-.7s-1-.6-1.6-.9c-.1,0-.2,0-.2,0,0,0,0,0-.2,0-.3-.2-.6-.4-.7-.7,0-.2-.2-.5-.2-.9.3-1.1.5-2.4.8-3.6.3-1.3.6-2.5.9-3.8.3-1.2.6-2.5.9-3.6.3-1.2.7-2.3,1-3.3,0-.4,0-.8.2-1.1.2-.3.2-.7.2-1.1.4-1.1.7-2.2.9-3.4.2-1.1.4-2.4.7-3.8.2-.5.3-1,.4-1.6,0-.6.2-1.2.4-1.8.5,0,.9,0,1.3.2s.7.2,1.1.3c0,.2,0,.3,0,.3.1,0,.2-.1.3-.2.1,0,.1,0,0,.3.2,0,.2,0,.1-.3s0-.2.2-.2c0,0,0,.2,0,.5.3.1.5.3.6.7s.3.6.6.8c-.3.8-.5,1.5-.6,2.3-.1.8-.3,1.6-.5,2.4,0,0-.1,0-.1.1s0,.1-.2,0c0,.3,0,.6,0,1s-.2.8-.5,1c0,.4,0,.8,0,1.1-.1.3-.3.6-.4.9h0ZM108.6,30.7v.2h.3v-.2h-.2s0,0-.1,0h0ZM109.4,29.5c0,.1.2,0,.3-.1-.3,0-.4,0-.3.1ZM109.5,16.2c.1,0,.1,0,0,.1,0,.1-.1,0,0-.1ZM109.5,16.8c0-.2,0-.2,0-.2s0,.1,0,.2ZM110.2,28.6s0,0,0,0,0,0,0,0c0,0,0,0,.1,0,0,0,0,0,0,0h0ZM110.4,30.3c0,.1,0,.1-.1,0,0-.1,0-.1.1,0ZM110.7,30c.1,0,.2,0,.1,0,0,0,0,0-.1.1,0,0,0,0-.1,0s0,0,.1-.1h0ZM110.8,29.3c.2,0,.3-.1.5-.3,0,0,0,0,0-.2s0-.1-.2,0c.2.2.2.3,0,.3s-.2,0-.3.2h0ZM111.7,29s0,0,0,0,0,0,0,0c0,0,.1,0,.1,0,0,0,0,0,0,0h0ZM111.8,28.6c-.1,0-.2,0-.2.1.1,0,.2,0,.2-.1ZM111.9,28.9c0,.1,0,.1,0,0,0-.1,0-.1,0,0ZM112.3,28.6v.2h.2s0,0,.1,0v-.2h-.2s0,0-.1,0ZM113.1,28.6c.2,0,.2,0,.2-.1-.2,0-.2,0-.2.1ZM113.5,27.8c.1,0,.2,0,.2,0-.1,0-.2,0-.2,0ZM113.9,28.3c0,0,0,.1,0,.1s0,0,0-.1c0,0,.1,0,.1.1h.2c0,0,0-.1,0-.2-.1,0-.2,0-.2,0ZM114.6,28.1c0-.1,0-.1-.1,0,0,0,0,.1,0,.2.1,0,.2,0,.2,0,0,0-.1,0-.1-.1h0ZM114.8,28.1c.2,0,.3,0,.3-.2-.2,0-.2,0,0-.2-.2,0-.3.1-.3.3ZM115,28.6c0,.1-.1,0-.1,0,.2,0,.2,0,.1,0ZM115.7,27.8c0,0,0,.1,0,.1s0,0,0-.1c.2,0,.2,0,.1,0s-.1,0-.1,0ZM116.5,27.8s0,0,0,0c0,0,0,0-.1,0,0,.1,0,.2,0,.2s.2,0,.2-.1ZM119.7,26.8c-.1,0-.2,0-.2.1.1,0,.2,0,.2-.1ZM120,26.6c.1,0,.2,0,.2,0-.1,0-.2,0-.2,0Z"/>
  <path class="st0" d="M144.9,8.9c0,0-.1,0-.1,0s0,0-.1,0c0,0,0,.1.1,0,.1,0,.1,0,.1-.2,0,0,.2.1.4.1,0,.1,0,.2-.2.2-.1,0-.2,0-.3.1,0,0,0,.1.2,0,.1,0,.2,0,.3,0,0,0,0,.1-.3.1s-.3.1-.3.4h-.1c0-.2,0-.2-.3-.1-.2.1-.2.3-.1.5.1,0,.2,0,.1-.1s0-.2.2-.2c0,.1,0,.2.2.2,0,.2-.1.3-.3.3,0,0,0,.1.1.1s.1,0,0,.1c-.1,0-.3,0-.3.1,0,.1-.2.1-.5,0,0,.2,0,.2.1.2.1,0,.2,0,.2.2-1.2.2-2.5.3-3.9.3s-2.6,0-3.8.3c-.5-.1-1.1-.2-1.7-.1-.6,0-1.3,0-2.1,0,0,.2.2.4.5.4s.4.1.5.3c.5-.3,1.1-.4,1.7-.2.6.1,1.2,0,1.8-.1.3,0,.6.1.8,0,.3,0,.6,0,.9,0s.6,0,.8,0,.5,0,.7.2c.3-.3.8-.4,1.4-.3s1.1,0,1.6,0c-.2,0-.3.2-.5.3s-.3.1-.6,0c-.1,0,0,0,0,0h.4c0-.1-.2-.2-.3-.2s-.3,0-.4,0c-.1,0-.3,0-.4,0s-.2,0-.2,0c0,0-.1,0,0,.1,0,0,0,.1,0,.2-.5,0-1,0-1.6,0s-1.1.1-1.7.2-1.1,0-1.7,0-1,0-1.4-.2c.1,0,.2,0,.2-.2-.1,0-.2,0-.2.2-.2.2-.5.3-.7.2-.2,0-.4-.2-.6-.4,0,.1-.1.2-.3.3s-.2,0-.2-.3c0,0-.1,0-.1.2s0,.1-.2.1c-.1,1.4-.3,3-.5,4.6-.2,1.6-.4,3.2-.6,4.7-.2,1.6-.4,3.1-.5,4.6-.1,1.5-.2,2.9-.2,4.2-.1,0-.2,0-.2-.2s0-.2-.2-.2c0,.4,0,.7,0,1,0,.3,0,.6-.2,1-.2,0-.3-.1-.4-.2,0,0-.1-.1-.3-.2,0,0,0,0,0,.2-.2,0-.4-.1-.7-.3-.2-.2-.4-.1-.5.1-.3,0-.4-.1-.4-.3,0-.2,0-.4-.1-.5,0,.1,0,.2,0,.2s-.1,0-.2,0-.1,0-.1,0c0,0,0,0,0,.2-.2,0-.3-.2-.4-.4,0-.2-.2-.3-.6-.2-.3-.5-.5-1.1-.4-1.8,0-.6.1-1.3.1-2,0-1.1.1-2.2.3-3.4.2-1.2.3-2.4.4-3.6.1-1.2.2-2.4.3-3.7,0-1.2.1-2.5,0-3.8-1.2,0-2.4,0-3.7,0s-2.6,0-3.9-.1c0-.3,0-.6-.1-.8,0-.2-.2-.5-.2-.7,0-.2-.1-.4-.1-.6s0-.4.2-.6c0-.1-.2-.2-.3-.2,0,0,.1-.2.1-.5.2,0,.3,0,.3-.1,0-.1,0-.2.1-.3,0,0,0-.1-.1-.2,0,0-.1,0-.2-.2l.5-.5c.1-.1.3-.2.7,0,0,0,0-.1,0-.1s-.1,0-.2,0c1.4,0,2.8-.2,4.1-.2s2.6-.2,3.9-.2c.4,0,.8,0,1.4.2.5.1,1,.1,1.3,0,.1,0,.2,0,.2,0s0,.2.2.1c.1,0,.2,0,.3,0,0,0,.2,0,.3,0,.8,0,1.7,0,2.7,0,.9,0,1.9,0,2.8,0s1.9,0,2.8,0c.9,0,1.7,0,2.4,0,.3,0,.8.1,1.3.1s.8.2.9.5c0,0-.1,0-.2,0s-.2,0-.3,0c0,0,0,0,0,0s0,0,0-.1c-.2,0-.3,0-.4,0,0,0-.1.1-.1.2s0,.2-.1.2c0,0-.2.1-.3.1.1.2.3.2.5,0,.1-.1.3-.2.5-.2s.2,0,0,.1c-.1,0-.2.1-.2.2.2,0,.3,0,.3-.1s.1-.1.3,0c0,.2,0,.3-.2.3s-.2,0-.3.1c.1.1.3.2.5,0,.2-.1.3-.1.5-.1l-.2.2c0,0-.1.1-.1.2h0ZM128.8,31.4c0,0,0,0,0,.1,0,0,.1,0,.1,0,0,0,0,0,0,0s0-.1,0-.1h0ZM133.1,8.4c0,0,0-.1-.2,0,0,.1.1.2.2,0ZM134,8.4c0,.2,0,.2,0,0s0-.2,0,0ZM135.1,8.3c0,.1,0,.2,0,0,0-.1,0-.1,0,0ZM135.8,8.3c-.1,0-.2,0-.2,0,.1,0,.2,0,.2,0ZM138,12.2c.1-.1,0-.1,0,0,0,.1,0,.2,0,0ZM139,12.1c-.2,0-.3,0-.3.1.2,0,.3,0,.3-.1ZM140.2,7.8c0,.2,0,.2,0,0s0-.2,0,0ZM143,7.8c0-.1.1-.1.2,0,0,0,.1.1.2.1,0-.1,0-.2-.2-.3,0,0-.1.1-.3.1s-.2,0,0,.1h0ZM144,9.3c.1,0,.2,0,.2-.1-.1,0-.2,0-.2.1ZM145.4,10.7c0,0-.3.1-.5.2-.3,0-.6,0-.8,0,.2-.2.4-.3.6-.3h.7ZM144.6,9.8s0,0,0,0c0,0,0,0,0,0ZM144.7,7.6c0,0,0-.1.2-.1,0,0,0,.1-.2.1ZM145,9.8c0,.1-.1.2-.3.2,0,0,.1-.1,0-.2,0-.1,0-.1.2,0Z"/>
  <path class="st0" d="M152.2,4.7h0c0,.1.1,0,.1,0s0,0-.1,0c.1-.2.4-.3.7-.4.3,0,.5-.2.7-.5.8.2,1.4.4,1.8.9s.9.8,1.3,1.2c0,0,.1,0,.2,0s.1,0,.1,0c.3.4.5.9.6,1.5,0,.6.2,1.1.4,1.5,0,.2,0,.4-.2.4,0,.1.1.3,0,.5s0,.3,0,.3c-.1.6-.2,1.3,0,1.9s.1,1.3,0,1.9c0,.5.1.9.2,1.4,0,.5.2.9.3,1.3.1.4.4.7.7.8.3.2.8.2,1.4,0,.3.1.4.2.4.4s0,.2,0,.3c-.4,0-.7.2-1,.5-.2.3-.5.5-.9.6.4,1.5.7,2.9,1,4.2.3,1.4.6,2.8,1.1,4.3-.2-.1-.3-.1-.3,0,0,.2,0,.3,0,.3,0,0-.1,0-.2,0s-.1,0-.2,0c.1.5,0,.8-.3,1.1s-.7.4-1,.3c0-.2-.2-.4-.5-.5-.3-.1-.5-.1-.7-.1-.6-1-1.1-2.1-1.5-3.6-.4-1.4-.7-2.7-1.1-3.7-.1,0-.3,0-.4,0-.2,0-.3.1-.5.2s-.3.1-.4.1-.2,0-.2,0c-.1,0-.2.1-.2.4-.1,0-.2-.1-.4,0s-.3.1-.5.2c0,.1,0,.2.1.2-.4.2-.9.3-1.6.4-.6.1-1.2.2-1.8.4,0,0,0,0,0,0s0,0,0,0c0,.1-.2.1-.3,0s-.2-.1-.3,0c-.3,0-.5.2-.5.4s-.1.4-.4.5c-.6,1.5-1.1,3-1.7,4.5-.6,1.5-1.1,2.9-1.7,4.2-.3.2-.6.3-1,.4s-.7.1-1,.3c-.2-.2-.4-.3-.7-.4s-.5-.2-.6-.5c-.2,0-.4,0-.6,0-.2,0-.3-.2-.5-.3-.1-.1-.3-.3-.4-.5s-.2-.3-.3-.4c.4-1.7.9-3.4,1.6-4.9.7-1.5,1.4-3.1,2-4.8-.2-.3-.3-.5-.4-.6,0-.1-.2-.3-.3-.5.2-.2.4-.3.6-.3,0-.1,0-.2.1-.4,0-.1.1-.3.2-.4.2,0,.4-.2.5-.3s.2-.2.4-.3c.5-1.2,1-2.4,1.4-3.4.4-1,.9-2.1,1.6-3.1.2-.7.5-1.3.8-1.8s.5-1.1.7-1.8c0,0,.1,0,.2,0s.2,0,.2-.1c0-.2,0-.3.1-.4.1,0,.1-.2,0-.4.4-.3.7-.7.9-1.2s.4-1,.7-1.5c0,0,0,0,0,.3.1,0,.2-.3.2-.6,0,0,.1,0,.2-.1s.1,0,.3,0c0-.2,0-.3,0-.4s0-.2.2-.3h0ZM143.9,33.8v.2h-.2v-.2h.2ZM150.1,23.6c-.1,0-.2,0-.2.2-.1,0-.1-.2,0-.3.2-.1.4-.1.4,0,0,0-.2.1-.3,0h0ZM150.8,18.1c.7,0,1.3,0,1.8-.1s1.1-.2,1.6-.4c-.1-.6-.2-1.4-.4-2.3s-.3-1.8-.3-2.7c0,0,0,0-.2,0-.4,1-.9,1.9-1.4,2.8-.5.8-.9,1.8-1.2,2.8h0Z"/>
  <path class="st0" d="M175.1,31.6h.1s0,0,0,0,0,0,0,0c0-.2,0-.5,0-.9s0-.8.1-1c-.1,0-.2.1-.3,0s-.1,0-.2,0c-.5-.5-.8-1-1.1-1.7-.3-.7-.5-1.4-.7-2.1s-.4-1.5-.6-2.3c-.2-.8-.4-1.5-.7-2.1,0,0,.1,0,.1,0s0,0,0,0c.1-.1.1-.2,0-.3s-.2-.1-.2-.4c0,0,0,.1,0,.3,0-.2-.1-.3-.2-.4s0-.2,0-.4c0,0-.1,0-.1.2-.2-.5-.4-1-.5-1.5s-.3-1.1-.4-1.7c.1,0,.2,0,.1.2s0,.2,0,.2c0-.4,0-.7,0-1-.1-.3-.3-.6-.4-.9,0,0,0,.2,0,.3s0,.2,0,.4c-.2.6-.4,1.4-.5,2.1s-.3,1.5-.4,2.3c-.1.8-.3,1.5-.5,2.2-.1.7-.4,1.4-.6,1.9,0,.9-.2,1.9-.4,2.9s-.4,2-.7,2.7c0,.4-.1.9-.2,1.3,0,.5-.3.8-.7,1-.1,0-.2,0-.3-.2l-.2-.2c0,.2-.2.3-.3.3-.1,0-.3,0-.4,0h-.3c-.1,0-.2,0-.2.2-.1,0-.2,0-.2-.2,0-.1,0-.2,0-.3,0,0-.1.1-.3.2-.1,0-.2,0-.3-.2,0,0-.1,0-.2.1,0,0-.1,0-.3,0,0-.2,0-.3.1-.3-.2,0-.3,0-.3.1,0,0,0,.2,0,.2-.1,0-.2-.1-.2-.3,0,0-.1.1-.2.2,0,0-.1.1-.3,0v-.3c-.1,0-.2,0-.3,0s-.1,0-.2,0l-.2-.5c0,0-.1,0,0,.1,0,0,0,.2,0,.2-.1-1.2,0-2.5.4-3.9.4-1.4.6-2.6.8-3.9,0,0,.1,0,.1-.2s0-.3-.1-.3c.1-.2.2-.4.2-.5,0-.1,0-.3.2-.4-.1-.7,0-1.3.3-1.9s.5-1.2.5-1.9c.2,0,.4,0,.4-.3,0,0,.2.1.3.1,0,0,0-.1-.1-.2s-.1,0-.1,0c0,0,0,0-.1-.1,0-.1,0,0-.1,0,0-.1,0-.4,0-.6.1-.3.1-.5,0-.6,0,0,.1,0,.1,0,0,0,0,0,.1,0h.2v-.2c0,0,0-.2,0-.2-.2,0-.3,0-.2.1,0,.1,0,.2,0,.3-.1,0-.2-.2,0-.3.1-.1.1-.3,0-.4.1,0,.2,0,.2-.1,0,0,0,0,0,0,0,0,0,0,.1,0,0,0,0-.1,0-.2,0,0,0-.1,0-.2,0-.1-.1-.2-.2,0s-.1.1-.1,0c0-.3,0-.5,0-.6.1-.1.1-.3.1-.6.2,0,.3.2.2.3s-.1.2-.2.4c.1,0,.2,0,.2,0,0,0,0-.1,0-.2s0-.2,0-.3c0-.1,0-.1.2-.1,0,.2,0,.4,0,.5.1,0,.2,0,.2-.2,0-.1-.1-.2-.2-.2,0,0-.1-.1,0-.3,0-.1,0-.2,0-.2.3,0,.4-.2.3-.5-.1-.2-.1-.4,0-.6.1,0,.2,0,.2.2s0,.2.2.2c0-.3.2-.6.3-.8s.2-.5,0-.8c0,.2,0,.3.1.1,0-.1.2-.2.4-.1,0-.1,0-.2,0-.2s0,0,0-.2c0-.1.1-.2.2-.1,0,0,.1,0,.1-.1.1,0,.2,0,.2.2v.3c-.2,0-.4,0-.5.1,0,0,0,.1.1.1,0,0,.2,0,.2,0,.2,0,.3,0,.3-.2.1,0,.1.1,0,.2s-.1.1,0,.2c0,.1,0,.2.1,0,0-.1.1-.1.2,0,0,0,0-.2,0-.5,0-.2.1-.4.1-.7,0-.2,0-.4,0-.5s0-.2-.2,0c0,0-.2,0-.3,0,0-.1,0-.3,0-.3s0-.1,0-.2c.1,0,.2.1.3.1s.2,0,.3.2l.2-.2s.1,0,.2,0c-.1-.1-.2-.3-.1-.5s.1-.4.3-.5c0,0,0,0,0,0,0,.2,0,.4,0,.7,0,.2,0,.5,0,.7-.1,0-.2,0-.2.2s0,.2,0,.2c.3,0,.3-.2.1-.4.1,0,.2,0,.2.1,0,.1,0,.2.1.3.2-.2.2-.4,0-.5-.1-.2-.2-.4-.2-.6.2,0,.3,0,.3,0,0,0,0,0,0,0s0-.1.1-.1c0-.1-.1-.2-.2,0s-.1.1-.2,0c0-.3.1-.5.1-.7s.1-.3.4-.3c0,.2-.1.3-.1.4s0,.1,0,.3c.3-.3.5-.6.3-1s-.2-.8-.2-1c0-.1,0-.1-.1,0,0,0-.1,0-.2,0,0,0,0-.1-.1-.2-.1,0,0-.1,0-.1,0,0,0,0,.1,0s0,0,.1,0c0-.2,0-.2-.1-.2s0,0-.1.2c0-.3,0-.5.2-.5,0,0,0,.2,0,.2s.2,0,.3,0c0,.1,0,.2,0,.2s0,0,0,.2c.2-.1.4-.2.5-.1.1,0,.3,0,.6.1,0,.2,0,.3,0,.4,0,.1.1.1.3,0,0-.2,0-.3-.1-.3-.2,0-.2,0-.1-.2.1,0,.3,0,.4.2.1.2.2.1.3-.1.1,0,.2.2.2.3s.1.2.2.3c0,0,0,0,0-.2s0-.1.2,0c0,.1,0,.2.2.2.1,0,.2.1.2.3.1,0,.2,0,.2-.2.1.2.3.3.5.5.1.1.3.3.4.5,0,.2.2.3.3.4.1.1.3.2.4.4,0,.1,0,.2,0,.2-.1,0-.1,0-.1.2.3,1,.6,2,.9,3,.4,1.1.6,2.1.8,3,.3.6.5,1.2.7,1.9.1.7.3,1.4.5,2.1.3-.2.4-.5.3-.8,0-.4,0-.7.2-1,0-1.3,0-2.7.2-4.1.1-1.4.3-2.9.4-4.3.2.1.3.1.2,0s0-.3,0-.4c0,0,.1,0,.1.1s0,.1,0,.1c.2-.5.3-1,.3-1.6,0-.6,0-1.1.2-1.6,0-.1,0-.1.2,0,0,0,.1.1.2,0,0-.2,0-.3,0-.5s0-.3,0-.5c.1-.2.2-.3.1-.5,0-.2,0-.4,0-.6,0,0,.2,0,.3.1,0,0,.2.1.3,0,0,0,.1,0,0,.1s0,0-.1.1c0,0,0,0,0,0s0,0,.2,0c0,.2,0,.3-.2.3,0,0,0,.1.1.2s0,.2,0,.3c-.1-.1-.2-.2-.2-.1s0,.1,0,.2,0,.2,0,.4c0,.1,0,.2,0,.3.2,0,.3,0,.4,0,0,0,.1-.1.1-.2,0-.1,0-.2,0-.4s0-.2.1-.3c0,0,.1,0,0,.2,0,.1,0,.2,0,.3.1-.3.2-.8.3-1.4,0-.6,0-1.1,0-1.3.1,0,.2,0,.3,0-.1-.3-.1-.5,0-.7.2.1.3.3.2.5,0,.2,0,.5.1.7.3.2.4.6.3,1.1-.2,0-.3-.2-.2-.4s0-.3-.2-.4c-.1.2-.1.3-.1.4,0,0,0,.2.1.4-.1,0-.2.1-.2.2,0,.1,0,.2-.1.3,0,0,.1.2.2.2,0,0,.2,0,.4,0,0,0,0,0,.1,0s0,0,.1,0c0,0,0-.1,0-.2s0-.2,0-.3h.2c0-.2-.1-.4,0-.5,0-.2,0-.3,0-.4,0-.2.1-.2.1-.2s0,0,.2,0c0,0,0-.1-.1-.2s-.1,0-.2-.2h.1c0-.1-.1-.2-.1-.2.2,0,.3,0,.2-.2s0-.3,0-.3c0,0,0,0,0,0s0,0,.1,0c0,0-.1-.1,0-.2,0,0,0-.2,0-.3s0-.2,0-.2,0-.1-.2-.2c.1-.2.2-.4.2-.6s0-.4.3-.5h0c0,0,0,0,0,0s0,0,0,0c0-.1,0-.2,0-.2.1,0,.2.3.1.6,0,.3-.1.5-.2.5,0,0,0,.1,0,.2,0,0,.1,0,.3,0,0,0,0-.1,0-.2,0,0,0-.1.1-.3h.2s0,0,0-.1c0,0,0-.1,0-.2,0,0,.1.1.2,0s.1,0,.1.2c0,0-.1,0-.1,0s0,0,.1,0c-.2,0-.2.2-.2.2,0,0,0,.2,0,.2,0,0,0-.1-.2-.1,0,0,0,.1.2.1v.2c-.1-.1-.2,0-.2,0s0,.2-.2.1c-.2,0-.3,0-.3-.1s0-.2-.1-.3c0,.1-.1.3-.2.5,0,.2,0,.4.2.5,0,0,0,.1,0,.1,0,0,0,0,0,.1h-.2s0,0,0,0,0,0,0,0c.3,0,.4,0,.3-.3s0-.3.2-.4c0,.2,0,.3,0,.5-.1.2,0,.3.2.4,0,0,0,.2-.2.2s-.1.2,0,.2c0,0,0,.1,0,.2s0,.2.2.2c0,.2-.1.3-.2.5,0,.1,0,.3,0,.5,0,0,0,.2,0,.3s0,.2-.2.3c0,0,0,0,0,0s0,0,0,.1c.1,0,.2,0,.3,0,0,0,0-.2,0-.2.1,0,.2,0,.2.2-.2,0-.2.1,0,.2s.2,0,0-.2c.2,0,.2,0,.2-.2,0-.1,0-.2,0-.2,0,0-.1-.1-.2-.1s-.1,0-.3,0c0,0,.1-.2.2-.3,0-.1.1-.1.3,0,0,0,0,0,0-.1-.1,0-.1-.2,0-.4.1,0,.2,0,.2-.2,0,0,.1,0,.1.2,0,0,.1,0,0-.1,0,0,0-.1,0-.1,0-.1-.1-.1-.2,0s-.1.1-.2,0c0-.2,0-.3.1-.3,0,0,.1,0,.2-.2,0,0-.1-.2-.2-.3s-.1-.2-.1-.3c.2-.1.2-.2.2-.4s0-.3.2-.5c0,.2,0,.3,0,.5s0,.3,0,.6c.1-.2.2-.4.2-.7s0-.6,0-.9c0,0,.1-.1,0-.1s0,0,0,.1c-.2,0-.2,0-.2-.2,0-.2.1-.4.2-.6.3,0,.4,0,.3-.2,0,0,0,0,0-.1,0,0,.1,0,.1,0s0,0-.1,0v-.2s0,0,0,0,0,0,0,0h0c0,0,0,0,0,.2,0,0-.1-.1-.1-.3,0-.1,0-.3,0-.5s.1-.3.3-.5c.1-.1.3-.2.6-.1-.4,1-.6,1.9-.8,2.7-.1.7-.2,1.7-.3,2.9-.2.9-.4,1.7-.6,2.5s-.2,1.5,0,2.1c-.1.3-.2.6-.2,1,0,.3,0,.7,0,1s0,.7,0,1c0,.4-.1.7-.3,1,0,2.2-.3,4.6-.7,7.3-.4,2.6-.7,5.2-1,7.7,0,0,0,0,0,0,0,0,0,0-.1,0,0,.6,0,1.2,0,1.6,0,.5,0,1-.2,1.5-.4,0-.8,0-1,.1-.2.2-.6.3-1,.3,0-.2-.1-.3-.4-.3-.3,0-.5,0-.6,0v-.3c0,0,0,0,0,.2,0,.1,0,.2-.2,0v-.3c-.1,0-.2,0-.3.1s-.1.1-.2.1c0-.1,0-.2,0-.3,0,0-.1-.2-.2-.2,0,0-.1.1-.2.1h-.4c0-.2,0-.4-.1-.5h0ZM163.8,20.1c0,0,0-.1,0-.1s0,0,0,.1c0,0,.1,0,.1,0,0,0,0,0,0,0h0ZM163.9,20.5c0,0,0,0,0,0,0,0,0,0,.1,0,0,0,0,0,0,0s0,0,0,0h0ZM164,20c0,.2,0,.2,0,0s0-.2,0,0ZM164.2,23.9c0,0,0-.1,0-.2s0-.1,0-.1c0,0,0,.1,0,.2-.1,0,0,.1,0,.2ZM164.2,17.1c0,0-.1,0-.1,0s0,0,.1,0ZM164.4,18.3s0,0,0,0c0,0,.1-.1,0-.1s0,0,0,.1c0,0-.1,0,0,0ZM164.4,15.2c0,0,0-.1,0,0v.2s0,0,0,0h0ZM164.7,16.2c0,.2,0,.2,0,0s0-.2,0,0ZM165.1,15.3c-.1,0-.2,0-.2,0,.1,0,.2,0,.2,0ZM165.1,14c-.1,0-.2,0-.2-.3.1,0,.2.1.2.3ZM165.2,18c0,0,0,0,0,.1,0,0,.1,0,.1,0,0,0,0,0,0,0s0-.1,0-.1h0ZM165.3,12.3c.2,0,.2,0,.1.2s-.1.2-.1.3c-.1,0-.1-.1,0-.2s.1-.1,0-.2ZM165.5,14.8v-.2s0,0,0,0c0,0,0,.1,0,0ZM165.6,12.6s0,0,0,0,0,0,0,0ZM165.9,14.2c0,0,0-.1,0-.1s-.2,0-.2,0h.3c0,0,0,0,0,0ZM166,11.4c0,0,.1,0,.1.1v.2c0,0-.1,0-.1-.1s0-.1,0-.2ZM166.1,13.7c0,0,0-.1,0-.2s0,0,0-.2c0,0,0,.1-.1.2,0,0,0,.1.1.1ZM166.3,11.3c0,.2-.2.2-.3,0s0-.3.1-.3c0,.1,0,.2.1.2h0ZM166.1,10.5c0,0-.1,0-.1,0s0,0,.1,0ZM166.1,10.5c.2,0,.3,0,.3,0s.1,0,.2,0c0,.1,0,.3,0,.4,0,.1,0,.2.2.2v.2c0,0-.2.1-.4.1,0,.1,0,.2,0,.2,0,0,0,.1,0,.1,0,0,0,0,0,0h-.3c.1-.3.2-.5.2-.7s0-.4,0-.6c-.2,0-.2,0-.2.1s0,.2-.1.2c0-.1-.1-.3,0-.3,0,0,0-.1,0-.2h0ZM166.3,9.7c0,0,0,.1,0,.1s0,0,0-.1h.2v.2c0,0,0,.2,0,.2,0,0-.2-.1-.4-.1,0,0,0-.1,0-.2,0,0,0-.1,0-.2h.1ZM166.1,15c0,.2,0,.2,0,0s0-.2,0,0ZM166.3,9.6c0,0-.1,0-.1,0s0,0,.1,0ZM166.2,20c0,0,0,.1,0,0v-.2s0,0,0,0ZM166.3,9.7h0c0,0,0,0,0,0h0ZM166.4,9.2c0,0-.1,0-.1,0s0,0,.1,0ZM166.3,13.5c0,0,0,.1,0,0v-.2s0,0,0,0ZM166.3,19c.2,0,.3,0,.3-.1-.2,0-.3,0-.3.1ZM166.4,15.2c0,.1,0,.2,0,.2s0,0,0,0,0,0,0-.1,0,0-.1,0h0ZM166.4,9.2s0,0,0,0,0,0,0,0ZM166.7,10.3c0,0,0-.1,0-.1s0,0,0,0c0,0,.1-.1.1-.3h.2c0,.1,0,.2,0,.3s0,.1,0,.2h-.1,0ZM166.5,11.7c0,0,0-.1,0-.1s0,0,0,.1ZM166.5,18.6c0,0,0,.1,0,0v-.2s0,0,0,0h0ZM166.7,10.3c0,.2,0,.2,0,.1s0-.1,0-.1ZM166.8,12.5h0c0,.1-.1,0-.1,0s0,0,.1,0h0ZM166.7,28.8c0,0,0,.1,0,0v-.2s0,0,0,0h0ZM166.8,12.5c0,0,0-.1,0-.2s0,0,0,0,0,0,0,.1,0,.1,0,.1h0ZM166.8,11.8c0,0,.1,0,.1,0,0,0,0,.1.1.1-.1.1-.2.2-.3.2,0,0,0-.1,0-.2,0,0,0-.1,0-.2ZM166.9,13.4c0-.1,0-.2,0,0,0,.2.1.2,0,0ZM166.8,7.9c.1,0,.2,0,.2.2,0,0,0,0,0,0,0,0-.1,0-.1-.2ZM166.8,10.5c0,0,0-.1,0,0v.2s0,0,0,0ZM167,28.1s0,0,0,0,0,0,0,0c0,0,.1,0,.1,0,0,0,0,0,0,0h0ZM167,8.8c.2.1.2.2,0,.2s-.2,0,0-.2ZM167,10.2c0,0,0,.1,0,.1s0,0,0-.1ZM167,10.1h0c0,.1,0,0,0,0s0,0,0,0h0ZM167,11.4c0-.2,0-.2,0,0s0,.2,0,0ZM167.3,9.9c0,0,0,.1,0,.1s0,0,0,0h-.1v-.2c0-.1,0-.2.1-.2,0,.1,0,.2.2.2h0ZM167,10.2h0c0,0,.1,0,.1,0h0c0,0-.1,0-.1,0ZM167.7,7.8c0,.2,0,.3-.2.4-.1,0-.3.1-.4.1,0-.2,0-.3,0-.4.1,0,.3-.1.5-.1h0ZM167.1,9.6v-.3c0,0,.1,0,.2,0s0,0,0,0c.1.1.2.2,0,.2-.1,0-.2,0-.3,0ZM167.1,10.2h0c0-.1,0,0,0,0h0ZM167.1,10.2h0c0,0,0,.1,0,.1s0,0,0-.1ZM167.1,11.3s0,0,0,0,0,0,0,0ZM167.1,13.4c.1,0,.2,0,.2-.2h-.2s0,0,0,0,0,0,0,.1ZM167.2,8.7h.3c0,0,0,.1,0,.2,0,0,0,.1,0,.1-.1,0-.2-.1-.2-.3ZM167.2,10.2h0c0,0,.1,0,.1,0h-.1ZM167.4,13.1s0,.1.1.3c0-.2,0-.4.2-.6s0-.3-.2-.4c0,.3,0,.4,0,.4s-.2,0-.3.2c.1,0,.2,0,.2,0h0ZM167.2,26.9c0,0,0,.1,0,0v-.2s0,0,0,0ZM167.5,13.8c0-.2,0-.3-.2-.3,0,.2,0,.3,0,.4s0,.2,0,.3c0,0,.1-.2.2-.4ZM167.3,10.2s0,0,0,0,0,0,0,0ZM167.6,9.1s0,0,0,0,0,0,0,0ZM167.6,9.1c0-.2,0-.2,0-.1,0,.1,0,.1,0,.1ZM167.9,23.6c0-.1,0-.2,0-.3h-.4c.1,0,.1.2.1.3s0,.2.1.2,0,0,0-.2h0ZM167.9,12.1c0-.1,0-.2-.2-.2,0,.1,0,.2.1.2,0,0,0,0,0,0ZM167.7,24.9h.2v-.2h-.2v.2ZM168.1,9.4c0,0,.1.2,0,.3,0,.1-.1.2-.3.2,0,0,0,0,0,0,0-.3,0-.5.2-.5ZM168.1,9.4c0,0,0-.1-.1-.1s-.1,0,0-.2c.2,0,.3-.2.2-.3,0-.1,0-.2,0-.4.2,0,.3.2.2.5s-.2.5-.3.6h0ZM167.9,8.2v.2s0,0,0,0c0,0,0-.1,0,0h0ZM168.1,13s0-.1,0-.2c0-.1,0-.1,0-.1,0,0,0,.1,0,.2-.1,0,0,.1,0,.1ZM168.4,7.8c0,.2,0,.3-.2.2v-.2c0,0,.1,0,.1,0h0ZM168.5,19.9c.1,0,.2-.1.2-.2,0,0,0,0-.1,0,0,0-.1,0-.2,0,0,.1,0,.2-.2.2,0,0,.2,0,.3,0h0ZM168.6,11.3c.1.1.1,0,.1-.1,0,0,.1,0,.1.2.2,0,.3,0,.2,0,0-.1,0-.2,0-.2,0,.2,0,.3.3.3,0-.1-.1-.3-.1-.5,0-.1-.1-.2-.3-.2s0,0-.1,0c0,0,0,0-.1,0,0,0,0,.1,0,.2,0,0,0,.1,0,.2-.2,0-.2,0-.1.1h0ZM168.7,8.4c0-.2,0-.2,0,0s0,.2,0,0ZM168.9,17.1c0-.2,0-.2,0,0,0,.2,0,.2,0,0ZM169.1,16.9c0,0-.1.1,0,.1s0,0,0-.1c0,0,.1,0,.1-.1s0-.1,0-.2c-.1,0-.2,0-.2,0,0,0,0,0-.1,0,0,.1,0,.2,0,.2s.1,0,.1.1ZM169.4,8.8c0-.2,0-.3-.2-.3,0,.2,0,.3.2.3ZM169.5,9.5c0,0-.1.2-.2.3,0,.1,0,.2.2.3,0-.2,0-.3,0-.4,0,0,0-.1,0-.2.1,0,.1-.2,0-.3-.1-.1-.2,0-.2.1.2,0,.3,0,.3.2h0ZM169.6,14.6c0-.2,0-.4,0-.5,0,0-.1-.1-.2-.2,0,.4,0,.6.2.7ZM169.5,8.4v-.2s0,0,0,0c0,0,0,.1,0,0ZM170.1,16.7c.2,0,.2,0,.1,0s-.1,0-.1,0ZM170.1,16.9c0,0,0-.1,0,0s0,.1,0,.2v-.2ZM172.7,9.2s0,0,0,0,0,0,0,0ZM174.3,16.1c.1,0,0-.1,0-.2,0-.2,0-.2,0-.2s0,.1,0,.2c0,.2,0,.3,0,.2ZM175.3,19c0,.2,0,.2,0,.1s0-.1,0-.1c0,0,0-.1,0,0s0,0,0,0ZM175.8,21.1s0,0,0,0c0,0-.1-.1-.1,0s0,0,.1,0c0,0,0,.1,0,0ZM176.8,20.8c0-.2,0-.2,0,0,0,.2,0,.2,0,0ZM176.9,19.1c0,0,.1,0,0-.2.1,0,.1,0,0-.1s-.1,0,0,.1c-.1,0-.2.1,0,.2ZM176.9,18.4c0,.2,0,.2,0,0s0-.2,0,0ZM177.2,16.6c0-.2,0-.3,0-.3,0,.3,0,.5-.1.5.1,0,.2,0,.2-.2ZM177,17.2c0,0,0,.1,0,0v-.2s0,0,0,0h0ZM177.2,15.9c-.1,0-.1,0,0,.2,0,.1.1.1.2,0,0,0-.1,0-.1-.2h.1c0,0-.1-.2,0-.4,0-.2,0-.3,0-.3,0,.2,0,.3,0,.3,0,0,0,.1,0,.3h0ZM177.2,14.7c0-.1,0-.2,0-.2s0,0,0,0c0,0,0,.2,0,.2ZM177.4,10.8s0,0,.1,0c0,0,0,.1-.1.2,0,.1,0,.1.1.1,0-.2,0-.3,0-.1s0,.2.1.2c0-.1,0-.2,0-.2s.1,0,.1-.1c0,0-.1,0-.1-.2s0-.1.2,0c0,0,0-.2,0-.3,0-.1-.1-.1-.2,0,0,0,0,0,0,.2s-.1.2-.1.3c0,0-.1-.1-.1,0h0ZM177.5,13.9c.1-.1,0-.2-.1-.2,0,.3,0,.3.1.2ZM177.6,12.6c0,0,0-.2,0-.5,0-.2,0-.3-.2-.2,0,.1,0,.2,0,.4,0,.1,0,.2.2.3ZM177.7,9.5c0,.1,0,.2,0,.2-.2,0-.3,0-.2-.1,0-.1,0-.2.2-.3,0,0,0,0,0,.2ZM177.6,8.6c0,0-.1,0-.1,0s0,0,.1,0ZM177.5,11.4c0,0,0,.1,0,0v-.2s0,0,0,0h0ZM177.6,8.6s0,0,0,0,0,0,0,0ZM178.4,6s0,0,0,0,0,0,0,0ZM178.6,11.8s0,0,0,0,0,0,0,0c0,0,.1.1.1,0s0,0-.1,0v-.2c0,.1.2.2.3,0,.1-.1.1-.2,0-.3,0,0,0,.1-.1.1s-.1,0-.1.1h0ZM178.7,10.4c0,.2,0,.2,0,.1s0-.1,0-.1c0,0-.1,0-.1,0s0,0,.1,0ZM178.7,4.4h0c0,.1,0,0,0,0s0,0,0,0h0ZM178.8,4.7s0,0,0,.2h-.2s0,0,.1,0c0,0,0,0,0-.1ZM178.7,7c0,.2.1.3.1,0s0-.2-.1,0ZM178.7,13.1c0,.1,0,.1,0,0,0-.2,0-.2,0,0ZM178.7,4.4s0,0,0,0,0,0,0,0ZM178.7,4.5c0,0,.1,0,.1,0s0,0-.1,0ZM178.8,8.1s0,0,0-.1c0,0,.1,0,0,0s0,0,0,0c0,0-.1.1,0,.1ZM179,7.8s0,0-.1,0c0,0,0,0,0,0s0,0,0,0c0,0,.1,0,.1,0ZM178.8,9.2c0,.2,0,.2,0,0s0-.2,0,0ZM179.1,9.5c-.1,0-.2.1-.2.3.1,0,.2-.1.2-.3ZM179,10.1h0c0,.1-.1.1-.1.1,0,0,0,.2,0,.4.1,0,.2,0,.2,0v-.3s0,0,0,0,0,0,0,0c0,0-.1,0-.1,0s0,0,.1,0h0ZM178.8,11.1c0,.2,0,.2,0,0s0-.2,0,0ZM178.9,2.7v.2s0,0,0,0c0,0,0-.1,0,0h0ZM179.2,9.1c0,0,0-.2,0-.3,0-.1,0-.2-.1-.2,0,0,0,.2,0,.3,0,.1,0,.2.2.1ZM179.1,4.9c0,0,.1,0,.1,0s0,0-.1,0ZM179.1,6.7c0,0,0-.1.2-.1,0,0,0,.1-.2.1ZM179.4,8.4c0,0,0-.1,0-.2-.1,0-.2,0-.2,0h.3ZM179.2,7.6c.2,0,.3,0,.3-.1s0-.2-.1-.3c0,0,0,.1-.1.2-.1,0-.1.1,0,.2h0ZM179.2,3.2c0,0,.1,0,.1.2s0,.2-.1.3c0,0-.1-.2,0-.3,0,0,0-.2,0-.3ZM179.2,5.9h.2v.2h-.2v-.2ZM179.2,6.4c0-.2,0-.2,0,0s0,.2,0,0ZM179.4,6c0,0,0,0,0,0v.2s0,0,0,0ZM179.8,5.4c0,.1,0,.3,0,.4,0,0-.1-.2-.1-.3,0-.2,0-.3,0-.3.2,0,.3.2.2.3ZM179.7,6.9c0,0,0,0,0,0s0,0,0,0c0,0-.1,0-.1,0s0,0,.1,0ZM179.8,27.8c.1,0,.2,0,0-.1-.1,0-.1,0,0,.1,0-.2-.1-.2-.1,0,0,.2,0,.2.1,0ZM179.7,2.5c0-.2,0-.2,0,0s0,.2,0,0ZM179.8,4.9c.1,0,.2,0,0,0s-.1,0,0,0ZM179.8,11c0,.2,0,.3,0,.3,0,0,0,0,0-.1v-.2c0,0,0,0,0,0h0ZM179.9,3.8h0c0,0,0,0,0,0s0,0,0,0ZM179.9,26c0,.2,0,.2,0,0s0-.2,0,0ZM179.9,3.8c0,0,0-.1,0-.1s0,0,0,.1ZM180.1,26c0-.1,0-.2,0-.3s0-.1,0-.2c-.2,0-.3,0-.3.2s0,.2.1.3h0ZM180,6.6v.2c0-.1,0-.2,0-.2s0,0,0,0ZM180.1,2.7c.1,0,.2,0,0,.1s-.1,0,0-.1ZM180.2,1.3s0,0,0,0c0,0,0,0,0,0ZM180.6,22.8c0-.2-.1-.4-.3-.4,0,0,0,.1,0,.2,0,0,0,.1,0,.2h.4,0ZM180.4,1.4h0c0,0-.1,0-.1,0h.1ZM180.5,2.1s0,0,.1.1c0,0,0,.2,0,.3,0,0-.1.1-.3.1,0-.1.1-.2,0-.3,0,0,0-.2.1-.4,0,0,0,.1,0,.1h0ZM180.4,4c0,0,0,0,0-.2-.1,0-.2,0-.2.1s0,.2.1.2c0,0,0-.1,0-.2ZM180.6,8.3s0,0,0,0c0-.1,0-.3,0-.4.1,0,0-.2,0-.3,0,0-.1.2-.2.4,0,.2,0,.3.2.3,0,0,0,.1,0,0ZM180.4,1.4c0,0,0-.1,0-.1s0,0,0,.1ZM180.4,1.5s0,0,0,0,0,0,0,0ZM180.4,6.6c0-.2,0-.2,0,0,0,.2,0,.2,0,0ZM180.5,1.8c0,.1,0,.1,0,.1,0-.2,0-.2,0-.1ZM180.4,5.9c0,0,0-.1,0-.1s0,0,0,.1,0,0,0,0c0,0,0,0-.1,0ZM180.6,5.6c0-.2,0-.2,0,0s0,.2,0,0ZM180.6,7c0,.2,0,.2.2.1,0-.1,0-.2,0-.2s0,0,.4,0c0,0,0-.2,0-.3,0-.1,0-.2-.1-.2,0,.1,0,.2-.2.2-.1,0-.2,0-.2.2.1,0,.1,0,0,.2h0ZM180.7,13.8c-.1,0-.2,0-.2,0,.1,0,.2,0,.2,0ZM180.8,2.9c0,.1-.1.1-.2,0,0-.1,0-.1.2,0ZM180.6,1.3h.3c0,.1-.1.2,0,.3,0,0,0,.1,0,.2-.1,0-.2-.2-.2-.5ZM180.6,4.3c0,0,0-.1,0-.1s0,0,0,.1ZM180.9,10.7c-.1,0-.2,0-.2.1.1,0,.2,0,.2-.1ZM180.8,18.6c0,0,0,.1,0,0v-.2s0,0,0,0h0ZM180.9,3.7c0,0,.1,0,0,.1-.1,0-.1,0,0-.1ZM181.1,7.3c0,.1,0,.2.2.2,0,0,0,0,0,0s0,0,0,0c0,0,0,0,0,0v-.2c0,0-.1,0-.1,0,0,0,0,0,0,0,0,0-.1,0-.1,0s0,0,.1,0ZM181.3,17v-.3c-.2,0-.3,0-.3,0,.1,0,.2,0,.2.1,0,.1,0,.2.1.2ZM181.1,7.8c0,.2,0,.2,0,.1,0,0,0-.1,0-.1,0-.2,0-.2,0-.1s0,.1,0,.1ZM181.2,3.3c0,0-.1,0-.1,0s0,0,.1,0ZM181.3,6.3c0,0-.1,0-.2-.2,0,.2,0,.2,0,.3s.1,0,.2,0c0,0,0-.1,0-.2h0ZM181.3,14.3c0,0,.1-.2,0-.4s0-.2-.1,0c.1,0,.1,0,0,.2s-.1.2,0,.2ZM181.3,1.5c0,0-.1,0-.1,0,0,0,0-.1,0-.2,0,0,0,0,0,.2h0ZM181.6,5.9v-.4c0,0,0-.2-.1-.3,0,.1,0,.2,0,.2,0-.1,0-.2-.2-.2,0,.3,0,.4,0,.4s0,.1,0,.3h.3,0ZM181.4,17.3s0,0,0,0,0,0,0,0c0,0,0,0,.1,0,0,0,0,0,0,0h0ZM181.3,1.5c0,0,.1,0,.1,0s0,0-.1,0ZM181.6,4.6s0,0,0,.3h-.3v.2c0,0,.1,0,.1,0s0,0,0,0c0,0,0,0,0-.1,0,0,0,0,0-.1.1,0,.2-.2,0-.3,0,0,.1,0,.1,0s0,0-.1,0v.2h0ZM181.4,13.2v-.2s0,0,0,0c0,0,0,.1,0,0h0ZM181.3,15.2c0,.2,0,.3.2.2,0-.1,0-.2-.2-.2ZM181.5.9c0,.2,0,.2,0,0,0-.2,0-.2,0,0ZM181.8,7.5v.3c0,0-.1,0-.2,0,0,0-.1,0-.2,0,0,.2.1.4.2.5s.1.3.2.5c0-.5,0-.8.2-.9,0,.1,0,.2.1.2,0,0,0,.1,0,0s0,0,0,0c0-.1,0-.2-.1-.2,0-.2,0-.3-.2-.5,0,0,.1,0,.2-.3,0-.2,0-.3,0-.4,0,0,0,0,0,0s0,0-.1,0c0,.2,0,.3,0,.3,0,0,0,.1,0,.3-.1,0-.2,0-.2,0h0ZM181.6,7c0,.2,0,.2,0,0,0-.1,0-.1,0,0ZM181.8,11c0-.1,0-.3,0-.4s0-.2-.1-.3c0,0,0,.2,0,.5s0,.3.2.2ZM181.9,10.2c0-.1,0-.1.3-.1v-.4c-.2,0-.3,0-.2.1s0,.2-.1,0c0-.2,0-.3.1-.5.1-.1,0-.2-.1-.4,0,.3,0,.5-.2.7s-.1.4,0,.6c.2,0,.3,0,.3,0h0ZM181.6,8c0,0,.1,0,.1,0s0,0-.1,0ZM181.8,3.1c-.1,0-.1,0,0,0,.1,0,.1,0,0,0ZM181.8,12.1c.1,0,.2,0,.2,0-.1,0-.2,0-.2,0ZM182,1c0,.1,0,.1,0,0,0-.1,0,0,0,0ZM182.1.5c0,0,0,.1,0,.2,0,0,0,0,0,0s0-.1,0-.3c0,0,.1,0,.1,0h0ZM182.1,4.7c0,0,0-.1,0-.1s0,0,0,.1ZM182.3,2.1c0,0-.1,0-.1,0s0,0,.1,0ZM182.2,8.5v-.2s0,0,0,0c0,0,0,.1,0,0h0ZM182.4,3.9c0,.2-.1.2-.2,0,0-.2,0-.2.2,0ZM182.3,6.2c0-.2,0-.2,0,0s0,.2,0,0ZM182.5,7.3c0-.2,0-.3-.2-.3v.3c0,.1,0,.1.2,0h0ZM182.8,2.1h0c0,0,0,0,0,0s0,0,0,0Z"/>
</svg>